<svg width="91" height="36" viewBox="0 0 91 36" fill="none" xmlns="http://www.w3.org/2000/svg">
<path d="M1.68 27.12C0.559997 27.12 -3.57628e-06 26.56 -3.57628e-06 25.44V1.68C-3.57628e-06 0.560001 0.559997 1.43051e-06 1.68 1.43051e-06C2.8 1.43051e-06 3.36 0.560001 3.36 1.68V23.76H14.44C15.56 23.76 16.12 24.32 16.12 25.44C16.12 26.56 15.56 27.12 14.44 27.12H1.68ZM28.5206 27.12C25.8673 27.12 23.894 26.48 22.6006 25.2C21.3206 23.92 20.6806 21.96 20.6806 19.32V14.68C20.6806 12 21.3206 10.0267 22.6006 8.76C23.894 7.48 25.8673 6.84 28.5206 6.84H31.8006C34.4673 6.84 36.4406 7.48 37.7206 8.76C39.0006 10.04 39.6406 12.0133 39.6406 14.68V19.28C39.6406 21.9333 39.0006 23.9067 37.7206 25.2C36.4406 26.48 34.4673 27.12 31.8006 27.12H28.5206ZM24.0406 19.32C24.0406 21.04 24.354 22.2133 24.9806 22.84C25.6073 23.4533 26.7873 23.76 28.5206 23.76H31.8006C33.5473 23.76 34.7273 23.4467 35.3406 22.82C35.9673 22.1933 36.2806 21.0133 36.2806 19.28V14.68C36.2806 12.9333 35.9673 11.7533 35.3406 11.14C34.7273 10.5133 33.5473 10.2 31.8006 10.2H28.5206C27.3606 10.2 26.454 10.3333 25.8006 10.6C25.1606 10.8533 24.7073 11.3067 24.4406 11.96C24.174 12.6 24.0406 13.5067 24.0406 14.68V19.32ZM51.7922 35.12C50.1789 35.12 48.9055 34.7933 47.9722 34.14C47.0522 33.4867 46.4589 32.4933 46.1922 31.16C46.0989 30.6 46.1989 30.16 46.4922 29.84C46.7855 29.52 47.2322 29.36 47.8322 29.36C48.3389 29.36 48.7055 29.4933 48.9322 29.76C49.1722 30.04 49.3789 30.4533 49.5522 31C49.7122 31.2933 49.9589 31.4933 50.2922 31.6C50.6389 31.7067 51.1389 31.76 51.7922 31.76H59.2322C60.2322 31.76 60.8789 31.6 61.1722 31.28C61.4789 30.9733 61.6322 30.3333 61.6322 29.36V24.7C60.9122 25.4867 60.0189 26.0867 58.9522 26.5C57.8989 26.9133 56.7122 27.12 55.3922 27.12H53.8722C51.2189 27.12 49.2455 26.48 47.9522 25.2C46.6722 23.92 46.0322 21.96 46.0322 19.32V14.68C46.0322 12 46.6655 10.0267 47.9322 8.76C49.2122 7.48 51.1922 6.84 53.8722 6.84H57.1522C58.0989 6.84 58.9455 6.98 59.6922 7.26C60.4522 7.54 61.0989 7.96667 61.6322 8.54V8.52C61.6322 7.4 62.1922 6.84 63.3122 6.84C64.4322 6.84 64.9922 7.4 64.9922 8.52V29.36C64.9922 31.32 64.5189 32.7667 63.5722 33.7C62.6389 34.6467 61.1922 35.12 59.2322 35.12H51.7922ZM53.8722 23.76H55.3922C57.1522 23.76 58.6322 23.54 59.8322 23.1C61.0322 22.66 61.6322 21.96 61.6322 21V13C61.6322 11.92 61.2389 11.1867 60.4522 10.8C59.6789 10.4 58.5789 10.2 57.1522 10.2H53.8722C52.1522 10.2 50.9722 10.5067 50.3322 11.12C49.7055 11.7333 49.3922 12.92 49.3922 14.68V19.32C49.3922 21.0133 49.7055 22.18 50.3322 22.82C50.9589 23.4467 52.1389 23.76 53.8722 23.76ZM79.8097 27.12C77.1564 27.12 75.183 26.48 73.8897 25.2C72.6097 23.92 71.9697 21.96 71.9697 19.32V14.68C71.9697 12 72.6097 10.0267 73.8897 8.76C75.183 7.48 77.1564 6.84 79.8097 6.84H83.0897C85.7564 6.84 87.7297 7.48 89.0097 8.76C90.2897 10.04 90.9297 12.0133 90.9297 14.68V19.28C90.9297 21.9333 90.2897 23.9067 89.0097 25.2C87.7297 26.48 85.7564 27.12 83.0897 27.12H79.8097ZM75.3297 19.32C75.3297 21.04 75.643 22.2133 76.2697 22.84C76.8964 23.4533 78.0764 23.76 79.8097 23.76H83.0897C84.8364 23.76 86.0164 23.4467 86.6297 22.82C87.2564 22.1933 87.5697 21.0133 87.5697 19.28V14.68C87.5697 12.9333 87.2564 11.7533 86.6297 11.14C86.0164 10.5133 84.8364 10.2 83.0897 10.2H79.8097C78.6497 10.2 77.743 10.3333 77.0897 10.6C76.4497 10.8533 75.9964 11.3067 75.7297 11.96C75.463 12.6 75.3297 13.5067 75.3297 14.68V19.32Z" fill="#4221D7"/>
</svg>
